<svg viewBox="0 0 342.85155851775386 342.85155851775386" height="342.85155851775386" width="342.85155851775386"><g><svg></svg></g><g><svg viewBox="0 0 342.85155851775386 342.85155851775386" height="342.85155851775386" width="342.85155851775386"><g><path d="M0 171.426c0-94.676 76.75-171.426 171.426-171.426 94.676 0 171.426 76.75 171.426 171.426 0 94.676-76.75 171.426-171.426 171.426-94.676 0-171.426-76.75-171.426-171.426zM171.426 335.056c90.371 0 163.631-73.26 163.63-163.63 0-90.371-73.26-163.631-163.63-163.631-90.371 0-163.631 73.26-163.631 163.631 0 90.371 73.26 163.631 163.631 163.63z" data-fill-palette-color="tertiary" fill="#000000" stroke="transparent"></path><ellipse rx="164.56874808852186" ry="164.56874808852186" cx="171.42577925887693" cy="171.42577925887693" fill="#000000" stroke="transparent" stroke-width="0" fill-opacity="1" data-fill-palette-color="tertiary"></ellipse></g><g transform="matrix(1,0,0,1,64.84655864529837,128.20589135559013)"><svg viewBox="0 0 213.1584412271571 86.43977580657362" height="86.43977580657362" width="213.1584412271571"><g><svg viewBox="0 0 213.1584412271571 86.43977580657362" height="86.43977580657362" width="213.1584412271571"><g><svg viewBox="0 0 213.1584412271571 86.43977580657362" height="86.43977580657362" width="213.1584412271571"><g id="textblocktransform"><svg viewBox="0 0 213.1584412271571 86.43977580657362" height="86.43977580657362" width="213.1584412271571" id="textblock"><g><svg viewBox="0 0 213.1584412271571 86.43977580657362" height="86.43977580657362" width="213.1584412271571"><g transform="matrix(1,0,0,1,0,0)"><svg width="213.1584412271571" viewBox="0.05000000447034836 -33.04999923706055 83.33999633789062 33.79999923706055" height="86.43977580657362" data-palette-color="#ffffff"><path d="M15.25-26.45L21.3-26.45 14.4 0 7.15 0 0.05-26.45 6.4-26.45 10.75-4.95 15.25-26.45ZM33.6-27.15Q38.6-27.15 41.37-23.65 44.15-20.15 44.15-13.25L44.15-13.25Q44.15-6.65 41.35-2.95 38.55 0.75 33.6 0.75L33.6 0.75Q28.65 0.75 25.85-2.88 23.05-6.5 23.05-13.25L23.05-13.25Q23.05-19.95 25.85-23.55 28.65-27.15 33.6-27.15L33.6-27.15ZM33.6-22.5Q31.45-22.5 30.45-20.38 29.45-18.25 29.45-13.25L29.45-13.25Q29.45-8.2 30.45-6.08 31.45-3.95 33.6-3.95L33.6-3.95Q35.75-3.95 36.75-6.08 37.75-8.2 37.75-13.25L37.75-13.25Q37.75-18.3 36.75-20.4 35.75-22.5 33.6-22.5L33.6-22.5ZM59.84-5L62-1.2Q59.55 0.75 56.24 0.75L56.24 0.75Q52.8 0.75 50.99-1.23 49.2-3.2 49.2-6.6L49.2-6.6 49.2-22 46.09-22 46.09-26.45 49.2-26.45 49.2-32.3 55.34-33.05 55.34-26.45 60.34-26.45 59.74-22 55.34-22 55.34-6.6Q55.34-4.2 57.39-4.2L57.39-4.2Q58.05-4.2 58.55-4.38 59.05-4.55 59.84-5L59.84-5ZM83.39-13.85Q83.39-13.4 83.24-11.3L83.24-11.3 69.59-11.3Q69.79-7.2 71.02-5.58 72.24-3.95 74.49-3.95L74.49-3.95Q76.04-3.95 77.29-4.48 78.54-5 79.99-6.15L79.99-6.15 82.54-2.65Q79.04 0.75 74.14 0.75L74.14 0.75Q68.94 0.75 66.17-2.85 63.39-6.45 63.39-13L63.39-13Q63.39-19.55 66.04-23.35 68.69-27.15 73.54-27.15L73.54-27.15Q78.19-27.15 80.79-23.78 83.39-20.4 83.39-13.85L83.39-13.85ZM77.39-15.3L77.39-15.65Q77.39-19.4 76.49-21.13 75.59-22.85 73.59-22.85L73.59-22.85Q71.74-22.85 70.77-21.18 69.79-19.5 69.59-15.3L69.59-15.3 77.39-15.3Z" opacity="1" transform="matrix(1,0,0,1,0,0)" fill="#ffffff" class="wordmark-text-0" data-fill-palette-color="quaternary" id="text-0"></path></svg></g></svg></g></svg></g></svg></g><g></g></svg></g></svg></g></svg></g><defs></defs></svg>